<svg xmlns="http://www.w3.org/2000/svg" version="1.1" xmlns:xlink="http://www.w3.org/1999/xlink" xmlns:svgjs="http://svgjs.dev/svgjs" width="1500" height="1500" viewBox="0 0 1500 1500"><rect width="1500" height="1500" fill="#ffffff"></rect><g transform="matrix(0.6666666666666666,0,0,0.6666666666666666,249.39393939393938,438.5856950067477)"><svg viewBox="0 0 396 247" data-background-color="#ffffff" preserveAspectRatio="xMidYMid meet" height="935" width="1500" xmlns="http://www.w3.org/2000/svg" xmlns:xlink="http://www.w3.org/1999/xlink"><g id="tight-bounds" transform="matrix(1,0,0,1,0.2400000000000091,-0.09999999999999432)"><svg viewBox="0 0 395.52 247.2" height="247.2" width="395.52"><g><svg></svg></g><g><svg viewBox="0 0 395.52 247.2" height="247.2" width="395.52"><g transform="matrix(1,0,0,1,75.54432000000001,81.92021505255346)"><svg viewBox="0 0 244.43135999999996 83.35956989489308" height="83.35956989489308" width="244.43135999999996"><g><svg viewBox="0 0 424.6367398575174 144.81585339987578" height="83.35956989489308" width="244.43135999999996"><g transform="matrix(1,0,0,1,0,10.676112840169345)"><svg viewBox="0 0 244.43135999999998 123.46362771953709" height="123.46362771953709" width="244.43135999999998"><g id="textblocktransform"><svg viewBox="0 0 244.43135999999998 123.46362771953709" height="123.46362771953709" width="244.43135999999998" id="textblock"><g><svg viewBox="0 0 244.43135999999998 123.46362771953709" height="123.46362771953709" width="244.43135999999998"><g transform="matrix(1,0,0,1,0,0)"><svg width="244.43135999999998" viewBox="4.95 -37.1 73.45 37.1" height="123.46362771953709" data-palette-color="#2d4f8f"><g class="wordmark-text-0" data-fill-palette-color="primary" id="text-0"><path d="M15-13.5L7.75-6.8 7.85-11.35 24.2-26.25 28.55-26.25 17-15.2 15-13.5ZM8.5 0L4.95 0 4.95-37.1 8.5-37.1 8.5 0ZM29.65 0L25.3 0 14.35-13.65 16.65-16.4 29.65 0ZM67.8-26.5L67.8-26.5Q71-26.5 73.37-25.28 75.75-24.05 77.07-21.55 78.4-19.05 78.4-15.25L78.4-15.25 78.4 0 74.85 0 74.85-14.9Q74.85-19.05 72.87-21.18 70.9-23.3 67.3-23.3L67.3-23.3Q64.6-23.3 62.62-22.18 60.65-21.05 59.57-18.93 58.5-16.8 58.5-13.8L58.5-13.8 58.5 0 54.95 0 54.95-14.9Q54.95-19.05 52.95-21.18 50.95-23.3 47.35-23.3L47.35-23.3Q44.7-23.3 42.7-22.18 40.7-21.05 39.62-18.93 38.55-16.8 38.55-13.8L38.55-13.8 38.55 0 35 0 35-26.25 38.4-26.25 38.4-19.15 37.85-20.4Q39.05-23.25 41.72-24.88 44.4-26.5 48.05-26.5L48.05-26.5Q51.9-26.5 54.6-24.58 57.3-22.65 58.1-18.8L58.1-18.8 56.7-19.35Q57.85-22.55 60.77-24.53 63.7-26.5 67.8-26.5Z" fill="#2d4f8f" data-fill-palette-color="primary"></path></g></svg></g></svg></g></svg></g></svg></g><g transform="matrix(1,0,0,1,273.5781593775174,0)"><svg viewBox="0 0 151.05858048 144.81585339987578" height="144.81585339987578" width="151.05858048"><g><svg xmlns="http://www.w3.org/2000/svg" xmlns:xlink="http://www.w3.org/1999/xlink" version="1.1" x="0" y="0" viewBox="2.7742587230778355 3.320999999999997 26.453219803185487 25.360000000000003" enable-background="new 0 0 32 32" xml:space="preserve" height="144.81585339987578" width="151.05858048" class="icon-icon-0" data-fill-palette-color="accent" id="icon-0"><path d="M22.944 28.681c-0.42 0-0.836-0.133-1.189-0.393l-5.75-4.247-5.751 4.247c-0.354 0.26-0.771 0.393-1.189 0.393-0.412 0-0.824-0.129-1.175-0.385-0.707-0.511-1-1.422-0.723-2.25l2.26-6.783-5.815-4.158c-0.71-0.509-1.009-1.416-0.74-2.246 0.268-0.825 1.037-1.382 1.904-1.382 0.004 0 0.01 0 0.014 0l7.15 0.057 2.157-6.816c0.262-0.831 1.035-1.397 1.906-1.397s1.645 0.566 1.905 1.397l2.156 6.816 7.146-0.057c0.004 0 0.015 0 0.019 0 0.863 0 1.637 0.557 1.899 1.382 0.271 0.831-0.024 1.737-0.735 2.246l-5.812 4.158 2.263 6.783c0.273 0.826-0.02 1.737-0.721 2.25C23.771 28.552 23.356 28.681 22.944 28.681L22.944 28.681z" fill="#ffe270" data-fill-palette-color="accent"></path></svg></g></svg></g></svg></g></svg></g><g><path d="M245.816 0c68.262 0 123.6 55.338 123.6 123.6 0 68.262-55.338 123.6-123.6 123.6-50.44 0-93.824-30.214-113.039-73.531l3.516 0c19.002 41.498 60.896 70.327 109.523 70.326 66.493 0 120.395-53.903 120.395-120.395 0-66.493-53.903-120.395-120.395-120.395-48.627 0-90.521 28.828-109.523 70.326h-3.516c19.215-43.317 62.598-73.531 113.039-73.531z" fill="#ffe270" stroke="transparent" data-fill-palette-color="tertiary"></path></g></svg></g><defs></defs></svg><rect width="395.52" height="247.2" fill="none" stroke="none" visibility="hidden"></rect></g></svg></g></svg>